<!DOCTYPE svg PUBLIC "-//W3C//DTD SVG 1.1//EN" "http://www.w3.org/Graphics/SVG/1.1/DTD/svg11.dtd">
<!-- Uploaded to: SVG Repo, www.svgrepo.com, Transformed by: SVG Repo Mixer Tools -->
<svg fill="#ffffff" height="64px" width="64px" version="1.1" id="Capa_1" xmlns="http://www.w3.org/2000/svg" xmlns:xlink="http://www.w3.org/1999/xlink" viewBox="0 0 244.678 244.678" xml:space="preserve" stroke="#ffffff">
<g id="SVGRepo_bgCarrier" stroke-width="0"/>
<g id="SVGRepo_tracerCarrier" stroke-linecap="round" stroke-linejoin="round"/>
<g id="SVGRepo_iconCarrier"> <g> <path d="M122.34,101.129c19.966,0,36.209-16.243,36.209-36.208c0-19.966-16.243-36.209-36.209-36.209 c-19.967,0-36.211,16.243-36.211,36.209C86.129,84.887,102.373,101.129,122.34,101.129z M122.34,43.712 c11.695,0,21.209,9.514,21.209,21.209c0,11.694-9.514,21.208-21.209,21.208c-11.696,0-21.211-9.514-21.211-21.208 C101.129,53.227,110.644,43.712,122.34,43.712z"/> <path d="M158.548,179.755c0-19.965-16.244-36.208-36.21-36.208s-36.21,16.243-36.21,36.208c0,19.966,16.244,36.209,36.21,36.209 S158.548,199.721,158.548,179.755z M122.338,200.964c-11.695,0-21.21-9.514-21.21-21.209c0-11.694,9.515-21.208,21.21-21.208 s21.21,9.514,21.21,21.208C143.548,191.45,134.033,200.964,122.338,200.964z"/> <path d="M143.548,122.339c0,19.966,16.243,36.209,36.208,36.209c19.966,0,36.209-16.243,36.209-36.209 c0-19.966-16.243-36.21-36.209-36.21C159.791,86.129,143.548,102.373,143.548,122.339z M179.756,101.129 c11.695,0,21.209,9.515,21.209,21.21c0,11.695-9.514,21.209-21.209,21.209c-11.694,0-21.208-9.514-21.208-21.209 C158.548,110.644,168.062,101.129,179.756,101.129z"/> <path d="M101.13,122.337c0-19.965-16.243-36.208-36.208-36.208c-19.966,0-36.209,16.243-36.209,36.208 c0,19.967,16.243,36.211,36.209,36.211C84.887,158.548,101.13,142.304,101.13,122.337z M64.922,143.548 c-11.695,0-21.209-9.515-21.209-21.211c0-11.694,9.514-21.208,21.209-21.208c11.694,0,21.208,9.514,21.208,21.208 C86.13,134.033,76.616,143.548,64.922,143.548z"/> <circle cx="122.339" cy="122.339" r="9.601"/> <path d="M237.178,229.674h-56.191c37.923-20.803,63.691-61.116,63.691-107.337c0-67.455-54.88-122.334-122.336-122.334 C54.882,0.004,0,54.882,0,122.337c0,67.457,54.882,122.337,122.342,122.337h114.836c4.142,0,7.5-3.358,7.5-7.5 C244.678,233.032,241.32,229.674,237.178,229.674z M15,122.337C15,63.153,63.153,15.003,122.342,15.003 c59.185,0,107.336,48.15,107.336,107.334c0,59.186-48.151,107.337-107.336,107.337C63.153,229.674,15,181.523,15,122.337z"/> </g> </g>
</svg>